<?xml version="1.0" encoding="UTF-8"?>
<svg id="Layer_1" xmlns="http://www.w3.org/2000/svg" version="1.1" viewBox="0 0 16 16">
  <!-- Generator: Adobe Illustrator 29.5.1, SVG Export Plug-In . SVG Version: 2.1.0 Build 141)  -->
  <defs>
    <style>
      .st0 {
        fill: none;
        stroke: #000;
        stroke-linecap: round;
        stroke-linejoin: round;
        stroke-width: 1.2px;
      }
    </style>
  </defs>
  <line class="st0" x1="14.9" y1="14.9" x2="1.1" y2="1.1"/>
  <path class="st0" d="M12.6,10.7c2-1.3,2.6-3.9,1.8-6.1,0,1.8-1.6,3.2-3.4,2.9-1.2-.2-2.1-1.2-2.3-2.3-.3-1.8,1.1-3.4,2.9-3.4h0c-2.2-.9-4.9-.3-6.1,1.7-.3.4-.5.8-.6,1.3l6.6,6.6c.5-.1.9-.3,1.3-.6Z"/>
  <path class="st0" d="M4.4,4.4l7.3,7.3c-.9.9-2.2,1.5-3.6,1.5-2.8,0-5.1-2.3-5.1-5.1s.6-2.7,1.5-3.6ZM1.8,14.2l1.3-1.3M6.2,14.6l-.2.6M9.8,14.6v.4M1,6.1h.4M.8,9.9l.6-.2"/>
</svg>